<?xml version="1.0" encoding="utf-8"?>
<!-- Generator: Adobe Illustrator 16.0.0, SVG Export Plug-In . SVG Version: 6.00 Build 0)  -->
<!DOCTYPE svg PUBLIC "-//W3C//DTD SVG 1.0//EN" "http://www.w3.org/TR/2001/REC-SVG-20010904/DTD/svg10.dtd">
<svg version="1.0" id="Capa_1" xmlns="http://www.w3.org/2000/svg" xmlns:xlink="http://www.w3.org/1999/xlink" x="0px" y="0px"
	 width="612.007px" height="572px" viewBox="-93 -47.5 612.007 572" enable-background="new -93 -47.5 612.007 572"
	 xml:space="preserve">
<g>
	<g>
		<g>
			<path fill="#056499" d="M392.895-31.336h-461.63C-82.123-31.336-93-20.458-93-7.071v380.229
				c0,13.388,10.877,24.265,24.265,24.265h344.967l-26.655-30.959h-63.71v-38.848h33.35l-0.239-0.358
				c-8.487-9.682-14.104-19.723-16.854-29.405H-34.669V68.233h393.616v229.62h-52.832c8.008,8.487,16.375,17.093,23.428,24.146
				c4.9-4.662,10.758-9.682,17.332-14.822c22.232-17.452,43.868-28.09,64.308-31.676c2.032-0.359,4.064-0.598,6.097-0.837V-6.952
				C417.279-20.458,406.401-31.336,392.895-31.336z M76.495,327.497h61.917v38.848H76.495V327.497z M-32.876,327.497h61.917v38.848
				h-61.917V327.497z M29.042,38.47h-61.917V-0.377h61.917V38.47z M138.413,38.47H76.495V-0.377h61.917V38.47z M247.784,38.47
				h-61.917V-0.377h61.917V38.47z M357.035,38.47h-61.917V-0.377h61.917V38.47z"/>
			<path fill="#056499" d="M517.207,399.335c-5.977-32.512-26.775-62.634-38.489-77.576c-16.017-20.44-36.337-28.568-60.363-24.384
				c-17.212,2.988-35.859,12.431-55.462,27.851c-13.866,10.877-24.385,21.875-29.047,26.895
				c-11.594-10.041-44.226-43.509-60.124-62.515c-8.008-9.443-28.688-29.644-44.107-15.778c-16.615,16.137,7.77,42.553,8.367,43.271
				l97.657,119.531c-0.358,0.479-0.836,0.956-1.314,1.435c-9.323,7.411-36.696-6.216-47.693-13.507
				c-10.041-6.694-27.014-6.574-35.621,0.119c-3.466,2.749-5.379,6.335-5.379,10.279c0,5.738,3.706,11.595,11.117,17.452
				c0.12,0.119,0.239,0.239,0.478,0.358c10.877,9.323,40.401,32.513,79.369,46.856c24.981,9.204,49.366,12.909,72.316,11.235
				c28.567-2.151,55.223-12.67,79.129-31.556C513.502,459.34,523.423,432.326,517.207,399.335z"/>
			<path fill="#056499" d="M138.054,101.344c-3.705-3.108-8.965-3.825-13.387-1.793c-4.423,2.032-7.292,6.455-7.292,11.355v132.44
				c0,4.901,2.869,9.324,7.292,11.355c1.673,0.837,3.466,1.195,5.259,1.195c2.869,0,5.737-0.956,8.009-2.988l79.01-66.22
				c2.869-2.391,4.542-5.857,4.542-9.682c0-3.825-1.673-7.291-4.542-9.682L138.054,101.344z"/>
		</g>
	</g>
</g>
</svg>
